# xmcd
#
# Track frame offsets: 
#        150
#        11325
#        23767
#        41055
#        51743
#        61654
#        66454
#        80667
#        93717
#        106052
#        118475
#
# Disc length: 1784 seconds
#
# Revision: 0
# Processed by: cddbd v1.5.2PL0 Copyright (c) Steve Scherf et al.
# Submitted via: ExactAudioCopy v0.99pb4
#
DISCID=9906f60b
DTITLE=Ragwater Revue - Ragwater Revue
DYEAR=2007
DGENRE=
TTITLE0=Chinstrapman
TTITLE1=Alligator Baby
TTITLE2=San Francisco Song
TTITLE3=Glass Eye and A Leisure Suit
TTITLE4=Cemetery Sal
TTITLE5=Interlude
TTITLE6=Poor John Button
TTITLE7=Cheif Sullivan's Epitaph
TTITLE8=The Killing Line
TTITLE9=Mute
TTITLE10=The Creep
EXTD=
EXTT0=
EXTT1=
EXTT2=
EXTT3=
EXTT4=
EXTT5=
EXTT6=
EXTT7=
EXTT8=
EXTT9=
EXTT10=
PLAYORDER=
